<?xml version="1.0" encoding="UTF-8"?><svg xmlns="http://www.w3.org/2000/svg" id="pmnLogoPink" viewBox="0 0 545.99 735.14">
  <defs>
    <style>.pmnLogoPinkColor {
  fill: #e4acac;
}
</style>
  </defs>
  <g id="pmnLogoPinkGroup" data-name="pmnLogoPinkGroupData">
    <path class="pmnLogoPinkColor" d="M454.59,3.6c-43.48-11.3-95.45,4.21-132.49,43.94-37.05,39.72-48.9,92.64-34.57,135.21,43.48,11.3,95.43-4.18,132.46-43.91,37.07-39.73,48.89-92.65,34.6-135.24Z"/>
    <path class="pmnLogoPinkColor" d="M158.29,78.8c-6.63,25.49,2.46,55.97,25.77,77.68,23.28,21.73,54.31,28.66,79.29,20.27,6.62-25.5-2.44-55.98-25.77-77.69-23.27-21.71-54.32-28.67-79.29-20.26Z"/>
    <path class="pmnLogoPinkColor" d="M322.22,211.08c-15.38,0-30.39,1.82-44.89,5.28C158.95,190.37,38.1,281.47,7.21,420.06c-30.87,138.81,40.19,272.75,158.74,299.17,13.16,2.92,26.35,4.33,39.46,4.43-95.45-43.54-148.59-163.04-121.1-286.47,10.69-48.01,32.18-90.31,60.63-124.01-29.15,44.24-46.51,99.69-46.51,159.89,0,144.75,100.18,262.06,223.78,262.06s223.78-117.31,223.78-262.06-100.17-262-223.78-262Z"/>
  </g>
</svg>